<?xml version="1.0" encoding="UTF-8" standalone="no"?>
<svg
   id="Capa_1"
   data-name="Capa 1"
   viewBox="0 0 491.51 218.9"
   version="1.1"
   sodipodi:docname="logo borys.svg"
   inkscape:version="1.1.2 (0a00cf5339, 2022-02-04)"
   xmlns:inkscape="http://www.inkscape.org/namespaces/inkscape"
   xmlns:sodipodi="http://sodipodi.sourceforge.net/DTD/sodipodi-0.dtd"
   xmlns="http://www.w3.org/2000/svg"
   xmlns:svg="http://www.w3.org/2000/svg">
  <sodipodi:namedview
     id="namedview19"
     pagecolor="#ffffff"
     bordercolor="#666666"
     borderopacity="1.0"
     inkscape:pageshadow="2"
     inkscape:pageopacity="0.0"
     inkscape:pagecheckerboard="0"
     showgrid="false"
     inkscape:zoom="0.82937692"
     inkscape:cx="217.63326"
     inkscape:cy="194.12163"
     inkscape:window-width="1366"
     inkscape:window-height="696"
     inkscape:window-x="0"
     inkscape:window-y="0"
     inkscape:window-maximized="1"
     inkscape:current-layer="Capa_1" />
  <defs
     id="defs4">
    <style
       id="style2">.cls-1{fill:#008bee;}</style>
  </defs>
  <path
     class="cls-1"
     d="M32.1,0H80.4c33.5,0,43.1,18.7,38.4,43.6-3.1,16.7-12.4,26.5-25.4,30.2,9.7,5,19.8,17.4,16,38.6C104,142.3,87.4,154,54.8,154H0ZM47.9,125.2h2c7.2,0,12.1-3.2,15.3-18.7S65,87.1,57.6,87.1H56ZM62.2,60.6c8.5,0,11.7-1.6,14.4-14.4,2.2-11,2.2-17.4-6.7-17.4H68.1L61.4,60.6Z"
     id="path6" />
  <path
     class="cls-1"
     d="M215.5,94.4c-10.1,46.8-23.8,61.7-58.2,61.7-34.6,0-48.6-16.9-37.5-67,10.6-47.3,29.2-59.7,57.3-59.7C211.5,29.5,224.9,50.7,215.5,94.4ZM162,92.6c-5.9,29-5.9,33.4-.9,33.4s6.1-5,11.7-32.4c6.3-30.6,6.5-33.8,1.1-33.8-4.5-.2-6,4.2-11.9,32.8Z"
     id="path8" />
  <path
     class="cls-1"
     d="M227.4,73.4c4.5-21.7,7-34.5,8.3-42.1h41.6c-.2,3.7-2,14.2-3.4,21,7.4-16.2,17.5-22.9,31.5-22.9l-9.9,47.1c-21.6-1.1-27.4,6.2-31.2,25.1L253.5,154H210.6Z"
     id="path10" />
  <path
     class="cls-1"
     d="M351.2,31.3c-2,18.5-5.6,57.8-8.1,76.6h1.8c5.4-19,12.4-46.9,21.8-76.6h45.2L363.4,141.9c-16.6,37.9-29.4,64-65.6,64a124.43,124.43,0,0,1-19.3-1.4l7-33.1c2.9.2,5.6.5,7.2.5,8.3,0,18.1-12.8,19.2-17.4L306.1,31.3Z"
     id="path12" />
  <path
     class="cls-1"
     d="M432.4,115.2c-1.1,7.1,0,12.1,4.7,12.1,3.8,0,5.2-1.6,6.1-5.7,1.3-5.9-.9-10.5-11-16-25.4-13.9-30.3-24.7-26.7-43.9,3.6-19.4,17.3-32.2,43.6-32.2,37.8,0,44.3,22.4,42,40.5h-36c1.3-8.9,0-13.9-5.2-13.9-3.4,0-5.4,1.4-6.1,5.2-.9,5,1.6,8,13.7,15.1,23.4,13.7,29.9,24.4,25.9,46.4-3.2,17.1-13.7,33.4-47.9,33.4-37.3,0-43.8-22.9-41.4-40.9h38.3Z"
     id="path14" />
  <polygon
     class="cls-1"
     points="290.4 160.4 290.4 218.9 234 189.7 290.4 160.4"
     id="polygon16" />
  <g
     aria-label="ARIEL"
     transform="scale(1.1833307,0.84507231)"
     id="text6866"
     style="font-style:italic;font-size:63.5124px;line-height:1.25;-inkscape-font-specification:'sans-serif, Italic';fill:#008bee;stroke-width:1.5878">
    <path
       d="m 37.011206,198.39025 h 7.101729 l 8.5903,46.30079 H 46.159721 L 44.236982,232.81348 H 23.396976 l -6.543514,11.87756 h -6.605538 z m 2.26387,6.17137 -12.993992,23.04185 h 16.994529 z"
       id="path909" />
    <path
       d="m 73.078063,203.53823 -3.163215,16.43631 h 8.063098 q 4.744823,0 7.659943,-2.605 2.946132,-2.63601 2.946132,-6.85363 0,-3.3803 -1.984763,-5.17899 -1.95375,-1.79869 -5.644168,-1.79869 z m 11.505421,18.91727 q 1.984762,0.46518 3.287263,2.29488 1.333512,1.8297 3.070179,7.2878 l 3.938514,12.65286 h -6.605538 l -3.628394,-11.87756 q -1.395537,-4.58977 -3.22524,-6.14036 -1.829702,-1.5506 -5.613156,-1.5506 h -6.915657 l -3.814466,19.56852 h -6.295418 l 9.024467,-46.30079 h 14.110421 q 6.419466,0 9.830777,2.91512 3.442323,2.88411 3.442323,8.34221 0,4.83785 -2.91512,8.37321 -2.91512,3.53536 -7.690955,4.43471 z"
       id="path911" />
    <path
       d="m 111.936,198.39025 h 6.29542 l -9.02447,46.30079 h -6.29542 z"
       id="path913" />
    <path
       d="m 130.66719,198.39025 h 29.27525 l -1.0234,5.27203 h -23.04185 l -2.66702,13.70726 h 22.11149 l -1.02339,5.27203 h -22.1115 l -3.22523,16.77744 h 23.56905 l -1.02339,5.27203 h -29.86448 z"
       id="path915" />
    <path
       d="M 170.73458,198.39025 H 177.03 l -7.93905,41.09079 h 22.54566 l -1.02339,5.21 h -28.84108 z"
       id="path917" />
  </g>
</svg>
