<?xml version='1.0' encoding='utf-8'?>
<svg xmlns="http://www.w3.org/2000/svg" id="svg2457" version="1.1" viewBox="0 0 507.99999 285.75001" height="1080" width="1920"> <defs id="defs2451"/> <metadata id="metadata2454"> </metadata> <g transform="translate(0,-11.249992)" id="layer1"> <g id="g5002" transform="translate(4630.5236,-14177.629)"> <g transform="translate(-4511.4214,12669.464)" id="g4853"> <rect y="1519.3751" x="-119.0625" height="285.75" width="508" id="rect4845" style="color:#000000;clip-rule:nonzero;display:inline;overflow:visible;visibility:visible;opacity:1;isolation:auto;mix-blend-mode:normal;color-interpolation:sRGB;color-interpolation-filters:linearRGB;solid-color:#000000;solid-opacity:1;fill:#1a1c2b;fill-opacity:1;fill-rule:nonzero;stroke:#0a0b15;stroke-width:0.079375;stroke-linecap:round;stroke-linejoin:round;stroke-miterlimit:4;stroke-dasharray:none;stroke-dashoffset:0;stroke-opacity:1;color-rendering:auto;image-rendering:auto;shape-rendering:auto;text-rendering:auto;enable-background:accumulate"/> <rect style="color:#000000;clip-rule:nonzero;display:inline;overflow:visible;visibility:visible;opacity:1;isolation:auto;mix-blend-mode:normal;color-interpolation:sRGB;color-interpolation-filters:linearRGB;solid-color:#000000;solid-opacity:1;fill:#1a1c2b;fill-opacity:1;fill-rule:nonzero;stroke:none;stroke-width:0.079375;stroke-linecap:round;stroke-linejoin:round;stroke-miterlimit:4;stroke-dasharray:none;stroke-dashoffset:0;stroke-opacity:1;color-rendering:auto;image-rendering:auto;shape-rendering:auto;text-rendering:auto;enable-background:accumulate" id="rect4847" width="508" height="285.75" x="-119.0625" y="1519.3751"/> <path id="path4849" d="m -119.0625,1519.375 v 285.75 l 508,-285.75 z" style="color:#000000;clip-rule:nonzero;display:inline;overflow:visible;visibility:visible;opacity:0.68399999;isolation:auto;mix-blend-mode:normal;color-interpolation:sRGB;color-interpolation-filters:linearRGB;solid-color:#000000;solid-opacity:1;fill:#0a0b15;fill-opacity:1;fill-rule:nonzero;stroke:none;stroke-width:0.07937499;stroke-linecap:round;stroke-linejoin:round;stroke-miterlimit:4;stroke-dasharray:none;stroke-dashoffset:0;stroke-opacity:1;color-rendering:auto;image-rendering:auto;shape-rendering:auto;text-rendering:auto;enable-background:accumulate"/> <path style="color:#000000;clip-rule:nonzero;display:inline;overflow:visible;visibility:visible;opacity:0.68399999;isolation:auto;mix-blend-mode:normal;color-interpolation:sRGB;color-interpolation-filters:linearRGB;solid-color:#000000;solid-opacity:1;fill:#0a0b15;fill-opacity:1;fill-rule:nonzero;stroke:none;stroke-width:0.07937499;stroke-linecap:round;stroke-linejoin:round;stroke-miterlimit:4;stroke-dasharray:none;stroke-dashoffset:0;stroke-opacity:1;color-rendering:auto;image-rendering:auto;shape-rendering:auto;text-rendering:auto;enable-background:accumulate" d="m -119.0625,1519.375 v 285.75 l 508,-285.75 z" id="path4851"/> </g> <g id="g4990"> <path id="path4855" d="m -4413.5269,14263.917 a 1.650132,1.650132 0 0 0 -1.6484,1.651 v 132.29 a 1.650132,1.650132 0 0 0 1.6484,1.652 h 74.0839 a 1.650132,1.650132 0 0 0 1.6505,-1.652 v -132.29 a 1.650132,1.650132 0 0 0 -1.6505,-1.651 z m 1.6501,3.301 h 70.7832 v 128.993 h -70.7832 z" style="color:#000000;font-style:normal;font-variant:normal;font-weight:normal;font-stretch:normal;font-size:medium;line-height:normal;font-family:sans-serif;font-variant-ligatures:normal;font-variant-position:normal;font-variant-caps:normal;font-variant-numeric:normal;font-variant-alternates:normal;font-feature-settings:normal;text-indent:0;text-align:start;text-decoration:none;text-decoration-line:none;text-decoration-style:solid;text-decoration-color:#000000;letter-spacing:normal;word-spacing:normal;text-transform:none;writing-mode:lr-tb;direction:ltr;text-orientation:mixed;dominant-baseline:auto;baseline-shift:baseline;text-anchor:start;white-space:normal;shape-padding:0;clip-rule:nonzero;display:inline;overflow:visible;visibility:visible;opacity:1;isolation:auto;mix-blend-mode:normal;color-interpolation:sRGB;color-interpolation-filters:linearRGB;solid-color:#000000;solid-opacity:1;vector-effect:none;fill:#5599ff;fill-opacity:1;fill-rule:evenodd;stroke:none;stroke-width:3.29993367;stroke-linecap:round;stroke-linejoin:round;stroke-miterlimit:4;stroke-dasharray:none;stroke-dashoffset:0;stroke-opacity:1;color-rendering:auto;image-rendering:auto;shape-rendering:auto;text-rendering:auto;enable-background:accumulate"/> <path style="fill:none;fill-rule:evenodd;stroke:#5599ff;stroke-width:1.32291663;stroke-linecap:butt;stroke-linejoin:round;stroke-miterlimit:4;stroke-dasharray:none;stroke-opacity:1" d="m -4408.2347,14381.984 v -100.54 h 63.5 v 100.54 z" id="path4857"/> <path id="path4859" d="m -4414.7113,14399.004 v 0 l 0.03,0.03 a 1.650132,1.650132 0 0 1 -0.029,-0.03 z" style="opacity:0.1;fill:#000000;fill-rule:evenodd;stroke:none;stroke-width:0.26458332px;stroke-linecap:butt;stroke-linejoin:miter;stroke-opacity:1"/> <path id="path4925" transform="scale(0.26458333)" d="m -16539.812,54079.238 c -3.909,-0.07 -7.814,0.227 -11.661,0.922 -30.505,5.522 -51.433,33.849 -47.742,64.629 0.935,7.684 3.382,15.105 7.201,21.836 l 0.416,0.797 0.04,0.08 50.522,87.506 50.975,-88.365 c 4.978,-8.788 7.602,-18.712 7.615,-28.811 l -1.66,-13.848 c -6.28,-25.814 -29.141,-44.169 -55.7,-44.728 z m -0.678,28.168 a 30.106881,30.106881 0 0 1 28.621,22.983 l 0.853,7.117 a 30.106881,30.106881 0 0 1 -28.312,30.053 30.106881,30.106881 0 0 1 -31.688,-26.469 30.106881,30.106881 0 0 1 24.534,-33.209 30.106881,30.106881 0 0 1 5.992,-0.475 z" style="color:#000000;clip-rule:nonzero;display:inline;overflow:visible;visibility:visible;opacity:1;isolation:auto;mix-blend-mode:normal;color-interpolation:sRGB;color-interpolation-filters:linearRGB;solid-color:#000000;solid-opacity:1;fill:#5599ff;fill-opacity:1;fill-rule:nonzero;stroke:none;stroke-width:11.71783924;stroke-linecap:round;stroke-linejoin:round;stroke-miterlimit:4;stroke-dasharray:none;stroke-dashoffset:0;stroke-opacity:1;color-rendering:auto;image-rendering:auto;shape-rendering:auto;text-rendering:auto;enable-background:accumulate"/> </g> </g> </g> </svg>